<?xml version="1.0" encoding="UTF-8"?>
<!DOCTYPE svg PUBLIC "-//W3C//DTD SVG 1.1//EN" "http://www.w3.org/Graphics/SVG/1.1/DTD/svg11.dtd">
<svg xmlns="http://www.w3.org/2000/svg" version="1.1" width="128px" height="128px" style="shape-rendering:geometricPrecision; text-rendering:geometricPrecision; image-rendering:optimizeQuality; fill-rule:evenodd; clip-rule:evenodd" xmlns:xlink="http://www.w3.org/1999/xlink">
<g><path style="opacity:0.764" fill="#000000" d="M 12.5,-0.5 C 14.1667,-0.5 15.8333,-0.5 17.5,-0.5C 16.8119,16.9793 25.1453,25.146 42.5,24C 47.9139,22.59 52.2472,19.59 55.5,15C 56.7932,14.51 58.1266,14.3433 59.5,14.5C 56.737,23.0752 50.737,27.9085 41.5,29C 37.4112,29.141 33.4112,29.3076 29.5,29.5C 37.2147,48.0618 35.8814,65.8952 25.5,83C 24.2068,83.49 22.8734,83.6567 21.5,83.5C 21.3398,81.8008 21.5065,80.1341 22,78.5C 30.7492,65.0017 32.4159,50.6684 27,35.5C 23.6745,27.5072 19.3412,20.1738 14,13.5C 12.6908,8.93416 12.1908,4.2675 12.5,-0.5 Z"/></g>
<g><path style="opacity:0.76" fill="#000000" d="M 105.5,-0.5 C 106.833,-0.5 108.167,-0.5 109.5,-0.5C 110.513,3.8257 110.346,8.15903 109,12.5C 105,19.1667 101,25.8333 97,32.5C 92.4869,42.8375 91.4869,53.5042 94,64.5C 96.4638,72.0943 99.9638,79.0943 104.5,85.5C 104.132,86.91 103.299,87.91 102,88.5C 91.1615,76.9853 86.4948,63.3187 88,47.5C 88.6748,40.9632 90.5081,34.7966 93.5,29C 89.8606,29.2779 86.1939,29.2779 82.5,29C 81.1667,27.6667 81.1667,26.3333 82.5,25C 98.5465,24.0802 106.213,15.5802 105.5,-0.5 Z"/></g>
<g><path style="opacity:0.559" fill="#000000" d="M 30.5,5.5 C 34.35,5.70072 35.35,7.53406 33.5,11C 29.5369,11.1177 28.5369,9.28433 30.5,5.5 Z"/></g>
<g><path style="opacity:0.559" fill="#000000" d="M 89.5,5.5 C 93.35,5.70072 94.35,7.53406 92.5,11C 88.5369,11.1177 87.5369,9.28433 89.5,5.5 Z"/></g>
<g><path style="opacity:0.687" fill="#000000" d="M 63.5,14.5 C 64.8734,14.3433 66.2068,14.51 67.5,15C 70.0241,18.6056 73.3574,21.2723 77.5,23C 78.9948,26.8406 77.6615,28.174 73.5,27C 69.052,24.8855 65.552,21.7189 63,17.5C 62.5304,16.4232 62.6971,15.4232 63.5,14.5 Z"/></g>
<g><path style="opacity:0.769" fill="#000000" d="M 48.5,41.5 C 49.8734,41.3433 51.2068,41.51 52.5,42C 54.4029,44.7191 56.4029,47.2191 58.5,49.5C 55.8925,52.4474 53.2258,55.4474 50.5,58.5C 47.3106,55.809 44.3106,52.9757 41.5,50C 43.802,47.1716 46.1353,44.3382 48.5,41.5 Z M 49.5,48.5 C 51.9732,48.9473 52.1399,49.9473 50,51.5C 48.2716,50.6477 48.105,49.6477 49.5,48.5 Z"/></g>
<g><path style="opacity:0.757" fill="#000000" d="M 15.5,127.5 C 14.1667,127.5 12.8333,127.5 11.5,127.5C 7.72147,113.545 9.22147,100.211 16,87.5C 18.2217,84.6967 20.0551,84.8634 21.5,88C 14.1402,100.352 12.1402,113.519 15.5,127.5 Z"/></g>
<g><path style="opacity:0.744" fill="#000000" d="M 107.5,87.5 C 111.612,89.7764 114.945,92.9431 117.5,97C 117.333,97.8333 117.167,98.6667 117,99.5C 113.945,101.736 111.112,104.069 108.5,106.5C 105.888,104.069 103.055,101.736 100,99.5C 99.8333,98.6667 99.6667,97.8333 99.5,97C 101.99,93.6774 104.657,90.5107 107.5,87.5 Z M 108.5,94.5 C 109.309,95.4687 110.309,96.3021 111.5,97C 110.069,97.4652 108.903,98.2986 108,99.5C 107.5,98.3333 106.667,97.5 105.5,97C 106.942,96.6232 107.942,95.7899 108.5,94.5 Z"/></g>
<g><path style="opacity:0.773" fill="#000000" d="M 28.5,88.5 C 29.552,88.3505 30.552,88.5172 31.5,89C 33.1977,91.6899 35.1977,94.0232 37.5,96C 35.5662,98.3225 33.5662,100.656 31.5,103C 29.8876,103.72 28.3876,103.554 27,102.5C 25.4543,100.301 23.9543,98.1343 22.5,96C 24.2912,93.3709 26.2912,90.8709 28.5,88.5 Z"/></g>
<g><path style="opacity:0.751" fill="#000000" d="M 63.5,127.5 C 62.1667,127.5 60.8333,127.5 59.5,127.5C 58.612,124.946 58.2786,122.279 58.5,119.5C 50.8581,118.673 45.1914,114.84 41.5,108C 42.0085,106.831 42.8419,105.998 44,105.5C 46.7953,107.293 49.2953,109.46 51.5,112C 61.7703,117.474 70.4369,115.474 77.5,106C 78.1667,105.333 78.8333,105.333 79.5,106C 80.5536,107.388 80.7203,108.888 80,110.5C 75.8233,116.004 70.3233,119.004 63.5,119.5C 63.5,122.167 63.5,124.833 63.5,127.5 Z"/></g>
<g><path style="opacity:0.723" fill="#000000" d="M 111.5,127.5 C 110.167,127.5 108.833,127.5 107.5,127.5C 107.196,126.85 106.863,126.183 106.5,125.5C 107.923,120.275 108.757,114.942 109,109.5C 112.912,108.073 114.412,109.573 113.5,114C 112.994,118.536 112.327,123.036 111.5,127.5 Z"/></g>
</svg>
