<?xml version="1.0" encoding="UTF-8"?>
<!DOCTYPE svg PUBLIC "-//W3C//DTD SVG 1.1//EN" "http://www.w3.org/Graphics/SVG/1.1/DTD/svg11.dtd">
<svg xmlns="http://www.w3.org/2000/svg" version="1.1" width="128px" height="128px" style="shape-rendering:geometricPrecision; text-rendering:geometricPrecision; image-rendering:optimizeQuality; fill-rule:evenodd; clip-rule:evenodd" xmlns:xlink="http://www.w3.org/1999/xlink">
<g><path style="opacity:0.827" fill="#000000" d="M 75.5,-0.5 C 79.1667,-0.5 82.8333,-0.5 86.5,-0.5C 94.0623,2.56003 99.5623,7.89337 103,15.5C 103.667,18.8333 103.667,22.1667 103,25.5C 100.456,27.0025 98.2895,28.8358 96.5,31C 97.6399,44.4671 97.8066,57.9671 97,71.5C 94.4259,73.0019 91.5926,74.0019 88.5,74.5C 85.9464,81.0529 81.613,86.0529 75.5,89.5C 73.4258,97.7923 76.0925,103.959 83.5,108C 90.7709,109.182 98.1042,109.849 105.5,110C 114.056,113.013 118.39,118.846 118.5,127.5C 81.5,127.5 44.5,127.5 7.5,127.5C 7.77828,118.714 12.1116,112.88 20.5,110C 28.2179,109.812 35.8846,109.146 43.5,108C 49.8961,103.491 52.3961,97.3241 51,89.5C 45.1976,85.8642 41.0309,80.8642 38.5,74.5C 36.2338,73.6858 33.9005,73.1858 31.5,73C 30.2986,72.0975 29.4652,70.9308 29,69.5C 28.3333,59.5 28.3333,49.5 29,39.5C 29.7441,25.1627 36.5775,14.996 49.5,9C 56.4112,7.61564 63.4112,7.11564 70.5,7.5C 70.667,3.82065 72.3337,1.15398 75.5,-0.5 Z M 80.5,12.5 C 79.3163,10.2384 77.6496,8.40503 75.5,7C 79.9969,3.79425 84.6636,3.79425 89.5,7C 95.7544,10.7476 98.7544,16.2476 98.5,23.5C 97.0695,23.4208 95.7362,23.7542 94.5,24.5C 92.3596,21.1927 90.0263,18.026 87.5,15C 85.559,13.0972 83.2257,12.2639 80.5,12.5 Z M 80.5,12.5 C 80.3433,13.8734 80.51,15.2068 81,16.5C 91.3022,25.9077 95.1356,37.5744 92.5,51.5C 91.5,51.5 90.5,51.5 89.5,51.5C 89.5,48.8333 89.5,46.1667 89.5,43.5C 76.1043,44.7595 64.9376,40.4261 56,30.5C 55.5014,26.8484 55.3347,23.1817 55.5,19.5C 54.0222,19.238 52.6888,19.5713 51.5,20.5C 50.726,24.7793 50.226,29.1126 50,33.5C 47.7868,38.9447 43.7868,42.278 38,43.5C 36.7475,46.0135 36.2475,48.6802 36.5,51.5C 35.5,51.5 34.5,51.5 33.5,51.5C 32.5045,20.1447 47.1712,7.81133 77.5,14.5C 78.7387,14.0576 79.7387,13.3909 80.5,12.5 Z M 53.5,37.5 C 54.552,37.3505 55.552,37.5172 56.5,38C 64.4059,45.1375 73.7392,48.6375 84.5,48.5C 84.6664,56.1739 84.4997,63.8406 84,71.5C 75.5608,89.0638 63.5608,92.0638 48,80.5C 41.6922,70.3435 39.8589,59.3435 42.5,47.5C 47.4828,45.513 51.1495,42.1797 53.5,37.5 Z M 34.5,55.5 C 35.8048,57.3972 36.4714,59.7305 36.5,62.5C 36.1667,64.8333 35.8333,67.1667 35.5,69.5C 34.914,69.2907 34.414,68.9574 34,68.5C 33.2316,64.0804 33.3982,59.7471 34.5,55.5 Z M 90.5,55.5 C 91.8048,57.3972 92.4714,59.7305 92.5,62.5C 92.1667,64.8333 91.8333,67.1667 91.5,69.5C 90.914,69.2907 90.414,68.9574 90,68.5C 89.2316,64.0804 89.3982,59.7471 90.5,55.5 Z M 56.5,91.5 C 60.7352,92.436 65.0685,92.7693 69.5,92.5C 69.0101,102.027 73.0101,108.86 81.5,113C 89.2286,113.143 96.8953,113.81 104.5,115C 108.301,116.301 110.968,118.801 112.5,122.5C 79.5,123.833 46.5,123.833 13.5,122.5C 15.0322,118.801 17.6989,116.301 21.5,115C 29.1047,113.81 36.7714,113.143 44.5,113C 53.274,108.628 57.274,101.462 56.5,91.5 Z"/></g>
<g><path style="opacity:0.785" fill="#000000" d="M 13.5,9.5 C 14.9778,9.23798 16.3112,9.57131 17.5,10.5C 18.1212,13.5639 18.9546,16.5639 20,19.5C 22.6613,21.4159 25.1613,23.4159 27.5,25.5C 25.1613,27.5841 22.6613,29.5841 20,31.5C 18.908,34.0444 18.2414,36.7111 18,39.5C 16.3333,42.1667 14.6667,42.1667 13,39.5C 12.7586,36.7111 12.092,34.0444 11,31.5C 8.33867,29.5841 5.83867,27.5841 3.5,25.5C 5.83867,23.4159 8.33867,21.4159 11,19.5C 12.1534,16.2454 12.9868,12.9121 13.5,9.5 Z M 14.5,22.5 C 18.1844,24.2033 18.351,26.2033 15,28.5C 13.2041,26.5983 13.0374,24.5983 14.5,22.5 Z"/></g>
<g><path style="opacity:0.759" fill="#000000" d="M 48.5,52.5 C 51.5184,52.3354 54.5184,52.502 57.5,53C 59.2826,54.0665 59.7826,55.5665 59,57.5C 55.5549,57.4765 52.0549,57.8098 48.5,58.5C 45.8386,56.5138 45.8386,54.5138 48.5,52.5 Z"/></g>
<g><path style="opacity:0.76" fill="#000000" d="M 69.5,52.5 C 72.5184,52.3354 75.5184,52.502 78.5,53C 80.2826,54.0665 80.7826,55.5665 80,57.5C 76.5549,57.4765 73.0549,57.8098 69.5,58.5C 66.8386,56.5138 66.8386,54.5138 69.5,52.5 Z"/></g>
<g><path style="opacity:0.771" fill="#000000" d="M 55.5,73.5 C 60.8426,74.7037 66.1759,74.7037 71.5,73.5C 71.7135,75.1439 71.3802,76.6439 70.5,78C 65.8503,79.9094 61.1836,79.9094 56.5,78C 55.6198,76.6439 55.2865,75.1439 55.5,73.5 Z"/></g>
<g><path style="opacity:0.785" fill="#000000" d="M 101.5,75.5 C 102.978,75.238 104.311,75.5713 105.5,76.5C 106.121,79.5639 106.955,82.5639 108,85.5C 110.661,87.4159 113.161,89.4159 115.5,91.5C 113.161,93.5841 110.661,95.5841 108,97.5C 106.908,100.044 106.241,102.711 106,105.5C 104.333,108.167 102.667,108.167 101,105.5C 100.759,102.711 100.092,100.044 99,97.5C 96.3387,95.5841 93.8387,93.5841 91.5,91.5C 93.8387,89.4159 96.3387,87.4159 99,85.5C 100.153,82.2454 100.987,78.9121 101.5,75.5 Z M 102.5,88.5 C 106.184,90.2033 106.351,92.2033 103,94.5C 101.204,92.5983 101.037,90.5983 102.5,88.5 Z"/></g>
<g><path style="opacity:0.797" fill="#000000" d="M 20.5,79.5 C 21.8734,79.3433 23.2068,79.51 24.5,80C 25.2066,82.5197 26.04,85.0197 27,87.5C 34.3333,90.1667 34.3333,92.8333 27,95.5C 25.9562,97.7148 25.2895,100.048 25,102.5C 23.6439,103.38 22.1439,103.714 20.5,103.5C 20.162,101.146 19.662,98.8127 19,96.5C 16.8001,95.1645 14.9667,93.4978 13.5,91.5C 14.9667,89.5022 16.8001,87.8355 19,86.5C 19.662,84.1873 20.162,81.854 20.5,79.5 Z"/></g>
</svg>
